<?xml version="1.0" encoding="us-ascii" standalone="no"?><svg xmlns="http://www.w3.org/2000/svg" xmlns:xlink="http://www.w3.org/1999/xlink" contentStyleType="text/css" height="426px" preserveAspectRatio="none" style="width:2281px;height:426px;background:#FFFFFF;" version="1.1" viewBox="0 0 2281 426" width="2281px" zoomAndPan="magnify"><defs/><g><!--entity Unauthenticated_user--><g id="elem_Unauthenticated_user"><ellipse cx="473.5" cy="14" fill="#F1F1F1" rx="8" ry="8" style="stroke:#181818;stroke-width:0.5;"/><path d="M473.5,22 L473.5,49 M460.5,30 L486.5,30 M473.5,49 L460.5,64 M473.5,49 L486.5,64 " fill="none" style="stroke:#181818;stroke-width:0.5;"/><text fill="#000000" font-family="sans-serif" font-size="14" lengthAdjust="spacing" textLength="156" x="395.5" y="78.4951">Unauthenticated_user</text></g><g id="elem_Authenticate"><ellipse cx="473.3288" cy="179.2658" fill="#F1F1F1" rx="69.3288" ry="16.2658" style="stroke:#181818;stroke-width:0.5;"/><text fill="#000000" font-family="sans-serif" font-size="14" lengthAdjust="spacing" textLength="91" x="424.8288" y="183.0133">Authenticate</text></g><g id="elem_Manage courts"><ellipse cx="1848.6066" cy="298.3213" fill="#F1F1F1" rx="74.6066" ry="17.3213" style="stroke:#181818;stroke-width:0.5;"/><text fill="#000000" font-family="sans-serif" font-size="14" lengthAdjust="spacing" textLength="105" x="1793.1066" y="302.0689">Manage courts</text></g><g id="elem_Read courts"><ellipse cx="1673.6678" cy="399.8336" fill="#F1F1F1" rx="67.1678" ry="15.8336" style="stroke:#181818;stroke-width:0.5;"/><text fill="#000000" font-family="sans-serif" font-size="14" lengthAdjust="spacing" textLength="85" x="1628.1678" y="403.5811">Read courts</text></g><g id="elem_Create courts"><ellipse cx="2204.6781" cy="400.1356" fill="#F1F1F1" rx="71.1781" ry="16.6356" style="stroke:#181818;stroke-width:0.5;"/><text fill="#000000" font-family="sans-serif" font-size="14" lengthAdjust="spacing" textLength="96" x="2153.6781" y="403.8832">Create courts</text></g><g id="elem_Update courts"><ellipse cx="1848.3073" cy="399.8615" fill="#F1F1F1" rx="72.3073" ry="16.8615" style="stroke:#181818;stroke-width:0.5;"/><text fill="#000000" font-family="sans-serif" font-size="14" lengthAdjust="spacing" textLength="99" x="1795.8073" y="403.609">Update courts</text></g><g id="elem_Delete courts"><ellipse cx="2027.3049" cy="400.061" fill="#F1F1F1" rx="70.8049" ry="16.561" style="stroke:#181818;stroke-width:0.5;"/><text fill="#000000" font-family="sans-serif" font-size="14" lengthAdjust="spacing" textLength="95" x="1976.8049" y="403.8085">Delete courts</text></g><g id="elem_Manage surfaces"><ellipse cx="465.5271" cy="298.6054" fill="#F1F1F1" rx="81.0271" ry="18.6054" style="stroke:#181818;stroke-width:0.5;"/><text fill="#000000" font-family="sans-serif" font-size="14" lengthAdjust="spacing" textLength="121" x="403.7415" y="301.8718">Manage surfaces</text></g><g id="elem_Read surfaces"><ellipse cx="651.5678" cy="400.0136" fill="#F1F1F1" rx="73.0678" ry="17.0136" style="stroke:#181818;stroke-width:0.5;"/><text fill="#000000" font-family="sans-serif" font-size="14" lengthAdjust="spacing" textLength="101" x="598.0678" y="403.7611">Read surfaces</text></g><g id="elem_Create surfaces"><ellipse cx="465.3536" cy="399.8707" fill="#F1F1F1" rx="77.3536" ry="17.8707" style="stroke:#181818;stroke-width:0.5;"/><text fill="#000000" font-family="sans-serif" font-size="14" lengthAdjust="spacing" textLength="112" x="406.6333" y="403.5454">Create surfaces</text></g><g id="elem_Update surfaces"><ellipse cx="84.5591" cy="400.1118" fill="#F1F1F1" rx="78.5591" ry="18.1118" style="stroke:#181818;stroke-width:0.5;"/><text fill="#000000" font-family="sans-serif" font-size="14" lengthAdjust="spacing" textLength="115" x="24.8328" y="403.6525">Update surfaces</text></g><g id="elem_Delete surfaces"><ellipse cx="275.4563" cy="399.7913" fill="#F1F1F1" rx="76.9563" ry="17.7913" style="stroke:#181818;stroke-width:0.5;"/><text fill="#000000" font-family="sans-serif" font-size="14" lengthAdjust="spacing" textLength="111" x="217.0675" y="403.5101">Delete surfaces</text></g><g id="elem_Manage reservations"><ellipse cx="1170.7229" cy="298.5446" fill="#F1F1F1" rx="93.2229" ry="21.0446" style="stroke:#181818;stroke-width:0.5;"/><text fill="#000000" font-family="sans-serif" font-size="14" lengthAdjust="spacing" textLength="149" x="1096.2229" y="301.3913">Manage reservations</text></g><g id="elem_Read reservations"><ellipse cx="1486.4263" cy="399.7853" fill="#F1F1F1" rx="84.4263" ry="19.2853" style="stroke:#181818;stroke-width:0.5;"/><text fill="#000000" font-family="sans-serif" font-size="14" lengthAdjust="spacing" textLength="129" x="1421.805" y="402.6739">Read reservations</text></g><g id="elem_Create reservations"><ellipse cx="848.7318" cy="400.2464" fill="#F1F1F1" rx="89.2318" ry="20.2464" style="stroke:#181818;stroke-width:0.5;"/><text fill="#000000" font-family="sans-serif" font-size="14" lengthAdjust="spacing" textLength="140" x="778.7318" y="403.093">Create reservations</text></g><g id="elem_Update reservations"><ellipse cx="1063.5567" cy="400.0113" fill="#F1F1F1" rx="90.5567" ry="20.5113" style="stroke:#181818;stroke-width:0.5;"/><text fill="#000000" font-family="sans-serif" font-size="14" lengthAdjust="spacing" textLength="143" x="992.0567" y="402.858">Update reservations</text></g><g id="elem_Delete reservations"><ellipse cx="1278.2915" cy="400.1583" fill="#F1F1F1" rx="88.7915" ry="20.1583" style="stroke:#181818;stroke-width:0.5;"/><text fill="#000000" font-family="sans-serif" font-size="14" lengthAdjust="spacing" textLength="139" x="1208.7915" y="403.005">Delete reservations</text></g><!--entity Authenticated_user--><g id="elem_Authenticated_user"><ellipse cx="848.5" cy="150" fill="#F1F1F1" rx="8" ry="8" style="stroke:#181818;stroke-width:0.5;"/><path d="M848.5,158 L848.5,185 M835.5,166 L861.5,166 M848.5,185 L835.5,200 M848.5,185 L861.5,200 " fill="none" style="stroke:#181818;stroke-width:0.5;"/><text fill="#000000" font-family="sans-serif" font-size="14" lengthAdjust="spacing" textLength="138" x="779.5" y="214.4951">Authenticated_user</text></g><!--entity Admin--><g id="elem_Admin"><ellipse cx="1170.5" cy="14" fill="#F1F1F1" rx="8" ry="8" style="stroke:#181818;stroke-width:0.5;"/><path d="M1170.5,22 L1170.5,49 M1157.5,30 L1183.5,30 M1170.5,49 L1157.5,64 M1170.5,49 L1183.5,64 " fill="none" style="stroke:#181818;stroke-width:0.5;"/><text fill="#000000" font-family="sans-serif" font-size="14" lengthAdjust="spacing" textLength="46" x="1147.5" y="78.4951">Admin</text></g><!--link Unauthenticated_user to Authenticate--><g id="link_Unauthenticated_user_Authenticate"><path d="M473.5,81.83 C473.5,106.28 473.5,137.34 473.5,157.56 " fill="none" id="Unauthenticated_user-to-Authenticate" style="stroke:#181818;stroke-width:1.0;"/><polygon fill="#181818" points="473.5,162.71,477.5,153.71,473.5,157.71,469.5,153.71,473.5,162.71" style="stroke:#181818;stroke-width:1.0;"/></g><!--reverse link Manage courts to Read courts--><g id="link_Manage courts_Read courts"><path d="M1803.71,324.97 C1770.07,344.09 1725.27,369.57 1697.95,385.1 " fill="none" id="Manage courts-backto-Read courts" style="stroke:#181818;stroke-width:1.0;"/><polygon fill="none" points="1800.69,318.63,1821.54,314.83,1807.61,330.8,1800.69,318.63" style="stroke:#181818;stroke-width:1.0;"/></g><!--reverse link Manage courts to Create courts--><g id="link_Manage courts_Create courts"><path d="M1913.86,317.77 C1985.79,337.87 2099.38,369.62 2161.09,386.87 " fill="none" id="Manage courts-backto-Create courts" style="stroke:#181818;stroke-width:1.0;"/><polygon fill="none" points="1911.69,324.43,1894.31,312.3,1915.46,310.95,1911.69,324.43" style="stroke:#181818;stroke-width:1.0;"/></g><!--reverse link Manage courts to Update courts--><g id="link_Manage courts_Update courts"><path d="M1848.5,336.56 C1848.5,352.45 1848.5,370.2 1848.5,382.7 " fill="none" id="Manage courts-backto-Update courts" style="stroke:#181818;stroke-width:1.0;"/><polygon fill="none" points="1841.5,336.38,1848.5,316.38,1855.5,336.38,1841.5,336.38" style="stroke:#181818;stroke-width:1.0;"/></g><!--reverse link Manage courts to Delete courts--><g id="link_Manage courts_Delete courts"><path d="M1893.67,324.61 C1927.8,343.58 1973.45,368.95 2001.64,384.62 " fill="none" id="Manage courts-backto-Delete courts" style="stroke:#181818;stroke-width:1.0;"/><polygon fill="none" points="1890.16,330.66,1876.08,314.83,1896.96,318.43,1890.16,330.66" style="stroke:#181818;stroke-width:1.0;"/></g><!--reverse link Manage surfaces to Read surfaces--><g id="link_Manage surfaces_Read surfaces"><path d="M513.88,325.38 C548.79,344.06 594.69,368.61 623.65,384.1 " fill="none" id="Manage surfaces-backto-Read surfaces" style="stroke:#181818;stroke-width:1.0;"/><polygon fill="none" points="510.13,331.31,495.8,315.71,516.74,318.97,510.13,331.31" style="stroke:#181818;stroke-width:1.0;"/></g><!--reverse link Manage surfaces to Create surfaces--><g id="link_Manage surfaces_Create surfaces"><path d="M465.5,337.46 C465.5,352.7 465.5,369.51 465.5,381.7 " fill="none" id="Manage surfaces-backto-Create surfaces" style="stroke:#181818;stroke-width:1.0;"/><polygon fill="none" points="458.5,337.29,465.5,317.29,472.5,337.29,458.5,337.29" style="stroke:#181818;stroke-width:1.0;"/></g><!--reverse link Manage surfaces to Update surfaces--><g id="link_Manage surfaces_Update surfaces"><path d="M394.41,318.07 C318.61,337.86 200.55,368.69 134.16,386.03 " fill="none" id="Manage surfaces-backto-Update surfaces" style="stroke:#181818;stroke-width:1.0;"/><polygon fill="none" points="393,311.2,414.12,312.92,396.53,324.75,393,311.2" style="stroke:#181818;stroke-width:1.0;"/></g><!--reverse link Manage surfaces to Delete surfaces--><g id="link_Manage surfaces_Delete surfaces"><path d="M416.36,325.23 C381.29,343.6 335.23,367.72 305.5,383.29 " fill="none" id="Manage surfaces-backto-Delete surfaces" style="stroke:#181818;stroke-width:1.0;"/><polygon fill="none" points="413.59,318.79,434.55,315.71,420.08,331.19,413.59,318.79" style="stroke:#181818;stroke-width:1.0;"/></g><!--reverse link Manage reservations to Read reservations--><g id="link_Manage reservations_Read reservations"><path d="M1242.03,322.02 C1302.05,340.92 1386.11,367.39 1438.39,383.85 " fill="none" id="Manage reservations-backto-Read reservations" style="stroke:#181818;stroke-width:1.0;"/><polygon fill="none" points="1239.66,328.61,1222.68,315.93,1243.86,315.26,1239.66,328.61" style="stroke:#181818;stroke-width:1.0;"/></g><!--reverse link Manage reservations to Create reservations--><g id="link_Manage reservations_Create reservations"><path d="M1098.53,321.74 C1037.86,340.49 952.58,366.84 898.95,383.41 " fill="none" id="Manage reservations-backto-Create reservations" style="stroke:#181818;stroke-width:1.0;"/><polygon fill="none" points="1096.51,315.04,1117.69,315.82,1100.65,328.41,1096.51,315.04" style="stroke:#181818;stroke-width:1.0;"/></g><!--reverse link Manage reservations to Update reservations--><g id="link_Manage reservations_Update reservations"><path d="M1134.63,332.85 C1117.87,348.44 1098.52,366.44 1084.23,379.72 " fill="none" id="Manage reservations-backto-Update reservations" style="stroke:#181818;stroke-width:1.0;"/><polygon fill="none" points="1129.95,327.65,1149.36,319.16,1139.48,337.9,1129.95,327.65" style="stroke:#181818;stroke-width:1.0;"/></g><!--reverse link Manage reservations to Delete reservations--><g id="link_Manage reservations_Delete reservations"><path d="M1206.65,332.8 C1223.86,348.66 1243.8,367.03 1258.3,380.39 " fill="none" id="Manage reservations-backto-Delete reservations" style="stroke:#181818;stroke-width:1.0;"/><polygon fill="none" points="1201.8,337.86,1191.84,319.16,1211.29,327.56,1201.8,337.86" style="stroke:#181818;stroke-width:1.0;"/></g><!--link Authenticated_user to Read courts--><g id="link_Authenticated_user_Read courts"><path d="M917.53,194.18 C1003.34,211.6 1154.02,243.52 1281.5,277.5 C1410.42,311.86 1560.48,360.96 1631.77,384.85 " fill="none" id="Authenticated_user-to-Read courts" style="stroke:#181818;stroke-width:1.0;"/><polygon fill="#181818" points="1636.76,386.53,1629.4928,379.8826,1632.018,384.9446,1626.9561,387.4698,1636.76,386.53" style="stroke:#181818;stroke-width:1.0;"/></g><!--link Authenticated_user to Create reservations--><g id="link_Authenticated_user_Create reservations"><path d="M848.5,217.57 C848.5,262.36 848.5,336.46 848.5,374.62 " fill="none" id="Authenticated_user-to-Create reservations" style="stroke:#181818;stroke-width:1.0;"/><polygon fill="#181818" points="848.5,379.98,852.5,370.98,848.5,374.98,844.5,370.98,848.5,379.98" style="stroke:#181818;stroke-width:1.0;"/></g><!--link Authenticated_user to Read surfaces--><g id="link_Authenticated_user_Read surfaces"><path d="M815.08,217.57 C772.93,264.32 701.99,343 669.15,379.42 " fill="none" id="Authenticated_user-to-Read surfaces" style="stroke:#181818;stroke-width:1.0;"/><polygon fill="#181818" points="665.72,383.23,674.7224,379.2353,669.0727,379.5206,668.7874,373.871,665.72,383.23" style="stroke:#181818;stroke-width:1.0;"/></g><!--link Admin to Manage reservations--><g id="link_Admin_Manage reservations"><path d="M1170.5,81.56 C1170.5,133.66 1170.5,227.19 1170.5,272.09 " fill="none" id="Admin-to-Manage reservations" style="stroke:#181818;stroke-width:1.0;"/><polygon fill="#181818" points="1170.5,277.32,1174.5,268.32,1170.5,272.32,1166.5,268.32,1170.5,277.32" style="stroke:#181818;stroke-width:1.0;"/></g><!--link Admin to Manage surfaces--><g id="link_Admin_Manage surfaces"><path d="M1147.29,47.9 C1083.93,57.62 903.28,88.31 761.5,141.5 C659.4,179.81 547.88,245.82 495.65,278.3 " fill="none" id="Admin-to-Manage surfaces" style="stroke:#181818;stroke-width:1.0;"/><polygon fill="#181818" points="491.39,280.96,501.1441,279.5968,495.634,278.3164,496.9143,272.8064,491.39,280.96" style="stroke:#181818;stroke-width:1.0;"/></g><!--link Admin to Manage courts--><g id="link_Admin_Manage courts"><path d="M1193.84,53.21 C1292.46,90.01 1675.93,233.1 1805.47,281.44 " fill="none" id="Admin-to-Manage courts" style="stroke:#181818;stroke-width:1.0;"/><polygon fill="#181818" points="1810.34,283.26,1803.3175,276.3546,1805.6584,281.5044,1800.5085,283.8452,1810.34,283.26" style="stroke:#181818;stroke-width:1.0;"/></g><!--SRC=[ZPBF2i8m38VlVOeUkqFVG8IYLo_2pXBMg0Njf7yy-V1EY5qBtRfhylt2HvBUGWntjC4C451VeaV7fTnpeR9wnvWuWOKRyc6CBlYExpvISd56qF_I0d9mE4reGFrBjw4ZFZ234kMZkyA0fLGgBc8arWP9hWsIu0mcqk6qrpS4CzfIisYiugIxFK3QsmEaNmOOKxK7-Nr8SVn5gkgzFZDReD9FOwbNKwy1SxpI9Dyl]--></g></svg>